<?xml version="1.0" standalone="no"?>
<!DOCTYPE svg PUBLIC "-//W3C//DTD SVG 20010904//EN"
 "http://www.w3.org/TR/2001/REC-SVG-20010904/DTD/svg10.dtd">
<svg version="1.0" xmlns="http://www.w3.org/2000/svg"
 width="512.000000pt" height="512.000000pt" viewBox="0 0 512.000000 512.000000"
 preserveAspectRatio="xMidYMid meet">
<metadata>
Created by potrace 1.14, written by Peter Selinger 2001-2017
</metadata>
<g transform="translate(0.000000,512.000000) scale(0.100000,-0.100000)"
fill="#000000" stroke="none">
<path d="M1918 5115 c-2 -3 -24 -6 -49 -9 -24 -2 -44 -5 -44 -6 0 -1 -9 -3
-20 -4 -20 -3 -91 -17 -110 -22 -5 -2 -20 -5 -32 -8 -13 -3 -32 -8 -43 -11
-11 -3 -28 -7 -37 -9 -10 -2 -45 -14 -78 -26 -33 -12 -64 -23 -70 -24 -40 -11
-189 -79 -193 -88 -2 -5 -8 -6 -13 -2 -5 3 -9 0 -9 -6 0 -6 -3 -9 -8 -7 -4 3
-32 -10 -62 -29 -30 -18 -73 -43 -95 -55 -22 -12 -42 -25 -45 -29 -3 -4 -43
-33 -90 -65 -79 -55 -390 -353 -390 -374 0 -4 -13 -24 -30 -42 -16 -19 -30
-37 -30 -41 0 -4 -6 -13 -13 -20 -29 -30 -183 -298 -171 -298 3 0 -2 -7 -10
-16 -9 -8 -16 -21 -16 -28 0 -12 -29 -80 -50 -118 -6 -10 -10 -27 -10 -37 0
-11 -4 -22 -9 -25 -5 -3 -12 -23 -17 -43 -9 -44 -11 -52 -14 -55 -2 -3 -6 -21
-14 -58 -10 -42 -16 -69 -22 -92 -8 -32 -18 -99 -30 -193 -8 -69 -9 -354 0
-435 10 -93 14 -124 21 -155 4 -16 8 -39 10 -50 2 -11 4 -21 5 -22 2 -2 4 -12
5 -23 1 -11 4 -23 5 -27 1 -5 3 -12 5 -18 1 -5 3 -12 4 -15 2 -3 4 -13 7 -22
2 -10 6 -26 8 -35 3 -10 5 -19 6 -20 2 -2 4 -7 5 -13 1 -5 3 -11 5 -12 1 -2 3
-11 5 -21 2 -10 7 -26 11 -35 4 -9 8 -19 9 -22 1 -3 5 -13 8 -22 4 -10 10 -26
14 -35 3 -10 7 -20 7 -23 8 -37 167 -329 204 -375 4 -5 36 -48 70 -95 107
-147 295 -329 442 -430 12 -8 34 -25 48 -37 15 -13 31 -23 35 -23 5 0 21 -8
35 -19 15 -10 44 -28 64 -40 21 -11 54 -30 73 -41 19 -11 37 -20 40 -19 3 0
34 -13 68 -30 57 -27 95 -42 107 -43 3 0 14 -5 25 -11 11 -6 22 -12 25 -12 3
0 28 -8 55 -17 28 -9 64 -20 80 -24 17 -4 35 -8 40 -10 6 -2 24 -6 40 -9 17
-3 39 -9 50 -12 11 -4 31 -8 45 -9 14 -1 25 -3 25 -4 0 -1 11 -4 25 -5 14 -2
48 -7 75 -10 56 -8 429 -9 490 -2 57 7 105 15 188 31 40 9 61 14 122 30 33 10
67 19 75 21 8 2 16 4 18 5 1 2 7 4 12 5 6 1 12 4 15 5 3 1 8 3 13 5 4 1 21 7
37 14 17 7 35 14 40 15 6 1 33 13 60 25 133 61 226 110 297 158 24 16 48 32
54 36 11 6 83 -64 360 -353 307 -319 377 -392 500 -520 321 -336 438 -448 479
-459 126 -35 247 2 316 95 42 57 51 84 52 159 1 128 27 96 -614 760 -63 66
-172 179 -241 250 -196 205 -381 397 -406 422 -23 25 -21 42 10 75 45 48 133
179 184 273 11 22 31 58 44 80 12 22 28 56 35 75 7 19 20 52 29 72 9 21 16 40
16 43 0 3 7 19 15 35 9 17 13 30 11 30 -3 0 3 20 14 45 11 25 20 47 20 50 0 3
0 6 1 8 0 1 2 9 4 17 2 8 6 25 9 37 9 34 16 65 21 93 3 14 7 36 10 50 3 14 8
43 10 65 2 22 7 58 11 80 9 52 9 373 1 450 -10 87 -22 161 -33 205 -3 14 -7
32 -8 40 -1 9 -5 21 -10 28 -4 6 -5 12 -2 12 3 0 1 11 -4 25 -5 14 -12 36 -14
48 -17 89 -132 353 -203 465 -18 29 -33 57 -33 62 0 6 -4 10 -10 10 -5 0 -10
6 -10 13 0 7 -8 22 -18 33 -9 10 -38 48 -64 84 -26 36 -59 79 -74 95 -15 17
-48 52 -73 80 -57 62 -173 168 -226 206 -22 16 -55 42 -73 57 -35 28 -89 63
-132 84 -14 7 -27 15 -30 19 -11 13 -119 67 -124 62 -3 -4 -6 -2 -6 4 0 9 -37
28 -70 37 -3 1 -14 7 -25 12 -11 6 -54 23 -95 38 -41 15 -82 30 -90 33 -16 7
-31 11 -57 17 -10 3 -19 5 -20 6 -2 2 -6 3 -10 4 -57 14 -97 23 -143 32 -14 3
-36 7 -50 10 -14 3 -43 8 -65 11 -48 6 -521 13 -527 8z m372 -549 c36 -3 74
-7 85 -9 11 -3 43 -8 70 -12 52 -9 63 -11 68 -15 1 -1 9 -3 17 -5 44 -9 137
-39 148 -47 6 -6 12 -7 12 -3 0 4 7 2 15 -5 8 -7 15 -10 15 -7 0 5 151 -70
227 -114 209 -120 438 -363 555 -590 18 -35 33 -66 33 -69 0 -3 8 -21 17 -40
18 -40 48 -118 54 -140 2 -8 11 -42 19 -75 26 -101 28 -110 42 -225 8 -69 8
-269 -1 -335 -10 -75 -14 -98 -20 -122 -3 -13 -9 -33 -12 -45 -3 -13 -7 -32
-8 -43 -2 -11 -4 -20 -5 -20 -2 0 -4 -7 -14 -47 -2 -7 -9 -24 -17 -38 -7 -14
-12 -26 -11 -28 4 -4 -17 -59 -52 -132 -73 -153 -172 -293 -290 -411 -82 -82
-145 -139 -156 -139 -3 0 -17 -10 -31 -23 -14 -12 -47 -37 -75 -54 -54 -34
-247 -132 -274 -139 -9 -2 -47 -15 -86 -28 -38 -14 -81 -27 -95 -30 -14 -3
-36 -8 -50 -11 -14 -4 -38 -8 -55 -10 -16 -2 -50 -7 -75 -11 -56 -8 -311 -8
-365 0 -22 3 -62 8 -88 11 -27 3 -56 9 -65 14 -9 5 -35 12 -57 16 -44 9 -53
11 -60 15 -3 1 -9 4 -15 5 -5 1 -12 4 -15 5 -3 1 -8 3 -12 5 -5 1 -21 7 -36
13 -16 7 -31 12 -34 12 -6 0 -197 93 -203 100 -3 3 -17 11 -32 19 -41 21 -192
137 -240 184 -99 98 -167 179 -222 262 -21 33 -46 71 -56 85 -29 44 -123 250
-114 250 2 0 -2 14 -11 30 -9 17 -13 30 -10 30 4 0 3 6 -2 13 -4 6 -8 17 -10
22 -1 6 -4 20 -7 33 -3 12 -8 31 -11 43 -2 11 -6 28 -9 37 -3 9 -8 37 -11 62
-3 25 -8 65 -11 90 -13 94 -7 294 11 388 2 11 6 35 9 53 9 53 13 72 25 102 6
15 8 27 6 27 -3 0 1 16 9 35 8 19 13 35 12 35 -5 0 36 97 57 138 10 17 15 32
12 32 -4 0 3 13 14 29 11 15 18 31 14 35 -3 3 -1 6 5 6 6 0 14 10 18 22 3 12
10 26 15 32 5 6 25 36 45 66 53 79 134 177 201 242 99 97 273 224 332 243 11
3 21 11 21 17 0 6 3 9 6 5 3 -3 35 10 70 29 35 19 67 34 71 34 10 0 75 21 88
29 6 3 15 6 20 8 6 1 20 4 33 7 12 3 32 9 45 12 12 3 29 7 37 9 8 2 15 4 15 5
0 4 90 16 179 25 33 3 61 7 62 8 4 4 146 -1 214 -7z"/>
</g>
</svg>
