<?xml version="1.0" standalone="no"?>
<!DOCTYPE svg PUBLIC "-//W3C//DTD SVG 20010904//EN"
 "http://www.w3.org/TR/2001/REC-SVG-20010904/DTD/svg10.dtd">
<svg version="1.0" xmlns="http://www.w3.org/2000/svg"
 width="128.000000pt" height="128.000000pt" viewBox="0 0 128.000000 128.000000"
 preserveAspectRatio="xMidYMid meet">
<metadata>
Created by potrace 1.14, written by Peter Selinger 2001-2017
</metadata>
<g transform="translate(0.000000,128.000000) scale(0.100000,-0.100000)"
fill="#000000" stroke="none">
<path d="M617 1168 c-8 -12 -121 -206 -250 -431 l-235 -407 65 0 65 0 -37 -68
c-21 -37 -42 -70 -49 -74 -6 -4 -8 -8 -3 -8 8 0 -22 -51 -37 -62 -6 -4 -8 -10
-4 -13 5 -5 866 -10 981 -6 16 1 13 11 -20 73 -21 40 -44 78 -50 86 -7 7 -13
18 -13 23 0 6 -8 18 -17 27 -16 16 -13 17 50 22 l67 5 -244 424 c-135 232
-247 425 -250 428 -2 3 -11 -6 -19 -19z"/>
</g>
</svg>
